<svg xmlns='http://www.w3.org/2000/svg' width='1000' height='1000' viewBox='0 0 1000 1000' preserveAspectRatio='xMidYMid meet'><defs><linearGradient id="field_halving_eclipse_a" x1="0%" y1="0%" x2="100%" y2="100%"><stop offset="0%" stop-color="purple"><animate attributeName="stop-color" values="#800080;#000000;#800080" dur="10s" repeatCount="indefinite"/></stop><stop offset="100%"><animate attributeName="stop-color" values="#000000;#800080;#000000" dur="10s" repeatCount="indefinite"/></stop></linearGradient></defs><rect width="100%" height="100%" fill="url(#field_halving_eclipse_a)"/><defs><pattern id="paradigm_crypto_pulse_paradigm_crypto_pulse_a" width="100" height="100" patternUnits="userSpaceOnUse"><path fill="none" stroke="#fc0" stroke-width="3" d="M30 30h40v40H30z"><animate attributeName="stroke" values="#ffcc00;#ffff00;#ffcc00" dur="2s" repeatCount="indefinite"/><animate attributeName="width" values="40;45;40" dur="1.5s" repeatCount="indefinite"/><animate attributeName="height" values="40;45;40" dur="1.5s" repeatCount="indefinite"/></path></pattern></defs><path fill="url(#paradigm_crypto_pulse_paradigm_crypto_pulse_a)" d="M0 0h1000v1000H0z"/><defs><radialGradient id="energy_arctic_energy_arctic_auraGrad" cx="50%" cy="50%" r="50%"><stop offset="0%" stop-color="#66ccff" stop-opacity="0.9"><animate attributeName="stop-opacity" values="0.7;1;0.7" dur="4s" repeatCount="indefinite"/></stop><stop offset="40%" stop-color="#66ccff" stop-opacity="0.9"/><stop offset="100%" stop-color="#00ffff" stop-opacity="0"/></radialGradient></defs><circle cx="500" cy="500" r="400" fill="url(#energy_arctic_energy_arctic_auraGrad)"><animate attributeName="r" values="360;440;360" dur="6s" repeatCount="indefinite"/></circle><path fill="none" d="M0 0h1000v1000H0z"/><g transform="translate(375 375)"><rect x="60" y="100" width="130" height="50" fill="none" stroke="#D4AF37" stroke-width="6" rx="5"/><path stroke="#D4AF37" stroke-width="4" stroke-linecap="round" d="M60 125H30M190 125h30"/><path d="m80 110 30-30 30 30 30-30" fill="none" stroke="gold" stroke-width="4" stroke-linecap="round"/><circle cx="95" cy="125" r="8" fill="#D4AF37"/><circle cx="125" cy="125" r="8" fill="#D4AF37"/><circle cx="155" cy="125" r="8" fill="#D4AF37"/><circle cx="30" cy="125" r="8" fill="#D4AF37"/><circle cx="220" cy="125" r="8" fill="#D4AF37"/></g><defs>
  <pattern id="Ice_Node_pattern" width="1000" height="1000" patternUnits="userSpaceOnUse">
    <g id="Ice_Node_wheel">
      <line x1="644.00" y1="500.00" x2="980.00" y2="500.00" stroke="#42d4f4" stroke-width="12.00" stroke-linecap="butt" stroke-opacity="0.95"/>
<line x1="601.82" y1="601.82" x2="839.41" y2="839.41" stroke="#42d4f4" stroke-width="12.00" stroke-linecap="butt" stroke-opacity="0.95"/>
<line x1="500.00" y1="644.00" x2="500.00" y2="980.00" stroke="#42d4f4" stroke-width="12.00" stroke-linecap="butt" stroke-opacity="0.95"/>
<line x1="398.18" y1="601.82" x2="160.59" y2="839.41" stroke="#42d4f4" stroke-width="12.00" stroke-linecap="butt" stroke-opacity="0.95"/>
<line x1="356.00" y1="500.00" x2="20.00" y2="500.00" stroke="#42d4f4" stroke-width="12.00" stroke-linecap="butt" stroke-opacity="0.95"/>
<line x1="398.18" y1="398.18" x2="160.59" y2="160.59" stroke="#42d4f4" stroke-width="12.00" stroke-linecap="butt" stroke-opacity="0.95"/>
<line x1="500.00" y1="356.00" x2="500.00" y2="20.00" stroke="#42d4f4" stroke-width="12.00" stroke-linecap="butt" stroke-opacity="0.95"/>
<line x1="601.82" y1="398.18" x2="839.41" y2="160.59" stroke="#42d4f4" stroke-width="12.00" stroke-linecap="butt" stroke-opacity="0.95"/>

      <circle cx="500.0" cy="500.0" r="480.0" fill="none" stroke="#42d4f4" stroke-opacity="0.95" stroke-width="19.2"/>
      <circle cx="500.0" cy="500.0" r="144.0" fill="none" stroke="#42d4f4" stroke-opacity="0.95" stroke-width="14.4"/>
      <animateTransform attributeName="transform" attributeType="XML" type="rotate"
                        from="0 500.0 500.0" to="360 500.0 500.0" dur="8s" repeatCount="indefinite"/>
    </g>
  </pattern>
</defs>
<rect width="1000" height="1000" fill="url(#Ice_Node_pattern)"/></svg>